<svg width="139" height="60" viewBox="0 0 123 28" fill="none" xmlns="http://www.w3.org/2000/svg">
<path d="M12.42 11.29L19.77 22H15.45L10.02 14.11L4.62 22H0.3L7.65 11.29L0.63 0.999999H4.95L10.11 8.59L15.18 0.999999H19.5L12.42 11.29ZM23.8784 0.999999H33.8084V4.45H26.9084L26.3084 8.62C26.4684 8.58 26.6484 8.55 26.8484 8.53C27.0684 8.51 27.2884 8.5 27.5084 8.5C28.4284 8.5 29.2884 8.66 30.0884 8.98C30.9084 9.28 31.6084 9.72 32.1884 10.3C32.7884 10.88 33.2584 11.58 33.5984 12.4C33.9384 13.22 34.1084 14.15 34.1084 15.19C34.1084 16.33 33.9184 17.34 33.5384 18.22C33.1584 19.1 32.6384 19.85 31.9784 20.47C31.3384 21.07 30.5784 21.53 29.6984 21.85C28.8184 22.17 27.8784 22.33 26.8784 22.33C26.3184 22.33 25.7384 22.26 25.1384 22.12C24.5584 22 23.9884 21.82 23.4284 21.58C22.8884 21.32 22.3784 21.01 21.8984 20.65C21.4384 20.27 21.0484 19.83 20.7284 19.33L22.7084 16.72C23.1684 17.38 23.7884 17.91 24.5684 18.31C25.3684 18.69 26.1684 18.88 26.9684 18.88C27.9884 18.88 28.8184 18.55 29.4584 17.89C30.0984 17.23 30.4184 16.38 30.4184 15.34C30.4184 14.28 30.0284 13.4 29.2484 12.7C28.4684 11.98 27.3684 11.62 25.9484 11.62C25.2684 11.62 24.5984 11.68 23.9384 11.8C23.2984 11.9 22.8184 12.02 22.4984 12.16L23.8784 0.999999ZM53.4759 10.69H61.9959V19.39C61.5359 19.85 60.9859 20.27 60.3459 20.65C59.7259 21.01 59.0559 21.32 58.3359 21.58C57.6359 21.82 56.9259 22 56.2059 22.12C55.4859 22.26 54.7959 22.33 54.1359 22.33C52.4159 22.33 50.8759 22.08 49.5159 21.58C48.1759 21.06 47.0359 20.33 46.0959 19.39C45.1559 18.43 44.4359 17.29 43.9359 15.97C43.4359 14.63 43.1859 13.14 43.1859 11.5C43.1859 10 43.4259 8.59 43.9059 7.27C44.4059 5.95 45.1059 4.8 46.0059 3.82C46.9259 2.84 48.0259 2.07 49.3059 1.51C50.6059 0.949999 52.0559 0.669999 53.6559 0.669999C55.1559 0.669999 56.4359 0.859999 57.4959 1.24C58.5759 1.6 59.5459 2.12 60.4059 2.8L58.8459 5.74C58.3259 5.24 57.6359 4.85 56.7759 4.57C55.9159 4.27 55.0259 4.12 54.1059 4.12C53.0859 4.12 52.1459 4.29 51.2859 4.63C50.4459 4.95 49.7059 5.43 49.0659 6.07C48.4459 6.69 47.9559 7.46 47.5959 8.38C47.2559 9.3 47.0859 10.34 47.0859 11.5C47.0859 12.62 47.2559 13.64 47.5959 14.56C47.9359 15.46 48.4159 16.23 49.0359 16.87C49.6559 17.51 50.4059 18.01 51.2859 18.37C52.1659 18.71 53.1359 18.88 54.1959 18.88C54.5959 18.88 55.0059 18.84 55.4259 18.76C55.8659 18.68 56.2859 18.58 56.6859 18.46C57.0859 18.32 57.4459 18.16 57.7659 17.98C58.0859 17.8 58.3459 17.62 58.5459 17.44V14.14H53.4759V10.69ZM65.5528 8.5H69.0028V9.82C69.3228 9.38 69.7128 9.01 70.1728 8.71C70.6328 8.41 71.2728 8.26 72.0928 8.26C72.6528 8.26 73.0828 8.31 73.3828 8.41C73.7028 8.49 73.9728 8.61 74.1928 8.77L72.9628 12.01C72.6228 11.81 72.3328 11.68 72.0928 11.62C71.8728 11.54 71.5828 11.5 71.2228 11.5C70.6228 11.5 70.1528 11.64 69.8128 11.92C69.4728 12.2 69.2028 12.54 69.0028 12.94V22H65.5528V8.5ZM75.3183 15.25C75.3183 14.23 75.4883 13.29 75.8283 12.43C76.1883 11.57 76.6883 10.83 77.3283 10.21C77.9683 9.57 78.7383 9.07 79.6383 8.71C80.5383 8.35 81.5483 8.17 82.6683 8.17C83.7883 8.17 84.7983 8.35 85.6983 8.71C86.5983 9.07 87.3683 9.57 88.0083 10.21C88.6483 10.83 89.1383 11.57 89.4783 12.43C89.8383 13.29 90.0183 14.23 90.0183 15.25C90.0183 16.27 89.8383 17.21 89.4783 18.07C89.1383 18.93 88.6483 19.68 88.0083 20.32C87.3683 20.94 86.5983 21.43 85.6983 21.79C84.7983 22.15 83.7883 22.33 82.6683 22.33C81.5483 22.33 80.5383 22.15 79.6383 21.79C78.7383 21.43 77.9683 20.94 77.3283 20.32C76.6883 19.68 76.1883 18.93 75.8283 18.07C75.4883 17.21 75.3183 16.27 75.3183 15.25ZM79.0083 15.25C79.0083 16.39 79.3483 17.32 80.0283 18.04C80.7283 18.76 81.6083 19.12 82.6683 19.12C83.7483 19.12 84.6283 18.77 85.3083 18.07C86.0083 17.37 86.3583 16.43 86.3583 15.25C86.3583 14.69 86.2583 14.17 86.0583 13.69C85.8783 13.21 85.6183 12.81 85.2783 12.49C84.9583 12.15 84.5683 11.89 84.1083 11.71C83.6683 11.51 83.1883 11.41 82.6683 11.41C82.1483 11.41 81.6683 11.5 81.2283 11.68C80.7883 11.86 80.3983 12.12 80.0583 12.46C79.7383 12.78 79.4783 13.18 79.2783 13.66C79.0983 14.14 79.0083 14.67 79.0083 15.25ZM105.214 22H101.764V20.35C101.364 20.85 100.804 21.31 100.084 21.73C99.384 22.13 98.504 22.33 97.444 22.33C96.784 22.33 96.164 22.22 95.584 22C95.004 21.78 94.504 21.45 94.084 21.01C93.664 20.55 93.324 19.97 93.064 19.27C92.824 18.55 92.704 17.71 92.704 16.75V8.5H96.154V16.03C96.154 16.93 96.344 17.67 96.724 18.25C97.104 18.83 97.774 19.12 98.734 19.12C99.314 19.12 99.864 18.98 100.384 18.7C100.904 18.4 101.364 17.99 101.764 17.47V8.5H105.214V22ZM109.059 8.5H112.509V9.79C112.929 9.33 113.509 8.95 114.249 8.65C114.989 8.33 115.799 8.17 116.679 8.17C117.599 8.17 118.439 8.34 119.199 8.68C119.959 9.02 120.599 9.5 121.119 10.12C121.659 10.72 122.069 11.44 122.349 12.28C122.649 13.12 122.799 14.04 122.799 15.04C122.799 16.06 122.629 17.02 122.289 17.92C121.949 18.8 121.469 19.57 120.849 20.23C120.229 20.89 119.479 21.41 118.599 21.79C117.719 22.15 116.739 22.33 115.659 22.33C115.059 22.33 114.479 22.27 113.919 22.15C113.379 22.05 112.909 21.89 112.509 21.67V28H109.059V8.5ZM115.599 11.41C115.019 11.41 114.459 11.54 113.919 11.8C113.399 12.06 112.929 12.42 112.509 12.88V18.34C112.969 18.64 113.409 18.85 113.829 18.97C114.269 19.07 114.779 19.12 115.359 19.12C115.959 19.12 116.489 19.02 116.949 18.82C117.429 18.62 117.829 18.34 118.149 17.98C118.469 17.62 118.709 17.2 118.869 16.72C119.049 16.22 119.139 15.69 119.139 15.13C119.139 14.05 118.829 13.16 118.209 12.46C117.609 11.76 116.739 11.41 115.599 11.41Z" fill="#4D8814"/>
</svg>
